# xmcd CD database file
#
# Track frame offsets:
#	150
#	6862
#	21829
#	35334
#	48652
#	67632
#	82027
#	98471
#	115524
#	117266
#	132885
#	149357
#	163438
#	182019
#	182869
#
# Disc length: 3191 seconds
#
# Revision: 5
# Processed by: cddbd v1.5.2PL0 Copyright (c) Steve Scherf et al.
# Submitted via: CDex 1.70beta2
#
DISCID=c30c750f
DTITLE=Beastie Boys - Paul's Boutique
DYEAR=1989
DGENRE=Rap
TTITLE0=To All The Girls■f
TTITLE1=Shake Your Rump■f
TTITLE2=Johnny Ryall■f
TTITLE3=Egg Man■f
TTITLE4=High Plains Drifter■f
TTITLE5=The Sounds Of Science■f
TTITLE6=3-Minute Rule■f
TTITLE7=Hey Ladies■f
TTITLE8=5-Piece Chicken Dinner■f
TTITLE9=Looking Down The Barrel Of A Gun■f
TTITLE10=Car Thief■f
TTITLE11=What Comes Around■f
TTITLE12=Shadrach■f
TTITLE13=Ask For Janice■f
TTITLE14=B-Boy Bouillabaisse■f
EXTD=YEAR: 1989
EXTT0=
EXTT1=
EXTT2=
EXTT3=
EXTT4=
EXTT5=
EXTT6=
EXTT7=
EXTT8=
EXTT9=
EXTT10=
EXTT11=
EXTT12=
EXTT13=
EXTT14=
PLAYORDER=
